<?xml version="1.0" encoding="UTF-8" standalone="no"?>
<svg
   xmlns:dc="http://purl.org/dc/elements/1.1/"
   xmlns:cc="http://creativecommons.org/ns#"
   xmlns:rdf="http://www.w3.org/1999/02/22-rdf-syntax-ns#"
   xmlns:svg="http://www.w3.org/2000/svg"
   xmlns="http://www.w3.org/2000/svg"
   xmlns:sodipodi="http://sodipodi.sourceforge.net/DTD/sodipodi-0.dtd"
   xmlns:inkscape="http://www.inkscape.org/namespaces/inkscape"
   width="24"
   height="24"
   viewBox="0 0 24 24"
   version="1.1"
   id="svg3729"
   sodipodi:docname="priorityIconPurple.svg"
   inkscape:version="0.92.3 (2405546, 2018-03-11)">
  <metadata
     id="metadata3735">
    <rdf:RDF>
      <cc:Work
         rdf:about="">
        <dc:format>image/svg+xml</dc:format>
        <dc:type
           rdf:resource="http://purl.org/dc/dcmitype/StillImage" />
        <dc:title></dc:title>
      </cc:Work>
    </rdf:RDF>
  </metadata>
  <defs
     id="defs3733" />
  <sodipodi:namedview
     pagecolor="#ffffff"
     bordercolor="#666666"
     borderopacity="1"
     objecttolerance="10"
     gridtolerance="10"
     guidetolerance="10"
     inkscape:pageopacity="0"
     inkscape:pageshadow="2"
     inkscape:window-width="1920"
     inkscape:window-height="1001"
     id="namedview3731"
     showgrid="false"
     inkscape:zoom="33.666667"
     inkscape:cx="12"
     inkscape:cy="12"
     inkscape:window-x="-9"
     inkscape:window-y="-9"
     inkscape:window-maximized="1"
     inkscape:current-layer="svg3729" />
  <path
     d="M0 0h24v24H0z"
     fill="none"
     id="path3727" />
  <path
     style="fill:#ffffff;stroke-width:0.02970297"
     d="M 11.435839,21.966171 C 8.850955,21.78016 6.5012267,20.337918 5.1556417,18.111443 4.3453714,16.770728 3.9650977,15.262728 4.0209956,13.61193 4.118133,10.743237 5.0065082,8.1424497 6.6729328,5.8481768 6.7941007,5.6813575 6.9641955,5.4583019 7.0509214,5.3524978 L 7.2086047,5.1601265 7.1956702,5.447885 C 7.172313,5.9675341 7.31151,6.6150526 7.5591276,7.1386206 7.9605686,7.9874358 8.705881,8.6765768 9.559279,8.9880285 c 0.748559,0.2731901 1.659644,0.2901009 2.382557,0.044222 1.164913,-0.3962127 1.992107,-1.418877 2.24605,-2.7768054 0.06953,-0.3717947 0.06895,-1.3702936 -0.0012,-2.0198019 -0.100634,-0.9324647 -0.316253,-2.1445683 -0.53997,-3.0356174 -0.05619,-0.22379761 -0.102162,-0.42219573 -0.102162,-0.44088465 0,-0.079272 0.896853,0.72533805 1.545664,1.38669055 2.802148,2.8563119 4.498537,6.5350399 4.839956,10.4957523 0.1622,1.881635 -0.03414,3.276204 -0.653584,4.642376 -0.817223,1.80236 -2.32559,3.284202 -4.128669,4.056068 -1.141852,0.488807 -2.481175,0.71472 -3.712082,0.626143 z m 0.708769,-2.981742 c 0.737885,-0.04233 1.553933,-0.331058 2.261333,-0.800083 0.410645,-0.27227 1.012402,-0.869128 1.274655,-1.264281 0.363939,-0.548368 0.611779,-1.135101 0.748384,-1.771712 0.118532,-0.552386 0.109142,-1.728995 -0.02202,-2.759244 -0.08459,-0.664432 -0.331757,-1.84031 -0.454927,-2.164272 l -0.03104,-0.08163 -0.155602,0.187308 c -0.913094,1.099144 -2.394213,1.911807 -4.291696,2.354776 -0.85349,0.199248 -1.298123,0.375474 -1.746972,0.692391 -0.726438,0.512916 -1.13977,1.242402 -1.23314,2.176358 -0.05827,0.582866 0.04301,1.12621 0.312539,1.676655 0.409443,0.83619 1.160915,1.440859 2.089654,1.68143 0.226207,0.05859 0.710371,0.111437 0.881449,0.0962 0.04901,-0.0044 0.214331,-0.01512 0.36738,-0.0239 z"
     id="path3737"
     inkscape:connector-curvature="0" />
</svg>
